<svg xmlns="http://www.w3.org/2000/svg" version="1.1" xmlns:xlink="http://www.w3.org/1999/xlink" xmlns:svgjs="http://svgjs.dev/svgjs" width="1000" height="1000" viewBox="0 0 1000 1000"><g transform="matrix(1,0,0,1,-0.14221556886212738,-0.14221556886229791)"><svg viewBox="0 0 334 334" data-background-color="#ffffff" preserveAspectRatio="xMidYMid meet" height="1000" width="1000" xmlns="http://www.w3.org/2000/svg" xmlns:xlink="http://www.w3.org/1999/xlink"><g id="tight-bounds" transform="matrix(1,0,0,1,0.04749999999998522,0.04750000000001364)"><svg viewBox="0 0 333.90454557049503 333.90454557049503" height="333.90454557049503" width="333.90454557049503"><g><svg></svg></g><g><svg viewBox="0 0 333.90454557049503 333.90454557049503" height="333.90454557049503" width="333.90454557049503"><g><path d="M0 166.952c0-92.205 74.747-166.952 166.952-166.952 92.205 0 166.952 74.747 166.953 166.952 0 92.205-74.747 166.952-166.953 166.953-92.205 0-166.952-74.747-166.952-166.953zM166.952 316.63c82.665 0 149.677-67.013 149.678-149.678 0-82.665-67.013-149.677-149.678-149.677-82.665 0-149.677 67.013-149.677 149.677 0 82.665 67.013 149.677 149.677 149.678z" data-fill-palette-color="tertiary" fill="#6936f5" stroke="transparent"></path><ellipse rx="160.27418187383762" ry="160.27418187383762" cx="166.95227278524752" cy="166.95227278524752" fill="#6936f5" stroke="transparent" stroke-width="0" fill-opacity="1" data-fill-palette-color="tertiary"></ellipse></g><g transform="matrix(1,0,0,1,99.7238007367357,71.17305217166897)"><svg viewBox="0 0 134.45694409702364 191.5584412271571" height="191.5584412271571" width="134.45694409702364"><g><svg viewBox="0 0 134.45694409702364 191.5584412271571" height="191.5584412271571" width="134.45694409702364"><g><svg viewBox="0 0 134.45694409702364 191.5584412271571" height="191.5584412271571" width="134.45694409702364"><g><svg viewBox="0 0 134.45694409702364 191.5584412271571" height="191.5584412271571" width="134.45694409702364"><g id="textblocktransform"><svg viewBox="0 0 134.45694409702364 191.5584412271571" height="191.5584412271571" width="134.45694409702364" id="textblock"><g><svg viewBox="0 0 134.45694409702364 191.5584412271571" height="191.5584412271571" width="134.45694409702364"><g transform="matrix(1,0,0,1,0,0)"><svg width="134.45694409702364" viewBox="3.0999999046325684 -39.04999923706055 27.549999237060547 39.25" height="191.5584412271571" data-palette-color="#ffffff"><path d="M16.9 0.2L16.9 0.2Q13 0.2 9.88-1.63 6.75-3.45 4.93-6.6 3.1-9.75 3.1-13.7L3.1-13.7Q3.1-17.65 4.78-20.78 6.45-23.9 9.35-25.73 12.25-27.55 15.9-27.55L15.9-27.55Q18.85-27.55 21.35-26.33 23.85-25.1 25.55-23L25.55-23 25.55-36.5Q25.55-37.65 26.28-38.35 27-39.05 28.1-39.05L28.1-39.05Q29.25-39.05 29.95-38.35 30.65-37.65 30.65-36.5L30.65-36.5 30.65-13.7Q30.65-9.75 28.83-6.6 27-3.45 23.9-1.63 20.8 0.2 16.9 0.2ZM16.9-4.3L16.9-4.3Q19.45-4.3 21.45-5.53 23.45-6.75 24.6-8.9 25.75-11.05 25.75-13.7L25.75-13.7Q25.75-16.4 24.6-18.5 23.45-20.6 21.45-21.83 19.45-23.05 16.9-23.05L16.9-23.05Q14.4-23.05 12.38-21.83 10.35-20.6 9.18-18.5 8-16.4 8-13.7L8-13.7Q8-11.05 9.18-8.9 10.35-6.75 12.38-5.53 14.4-4.3 16.9-4.3Z" opacity="1" transform="matrix(1,0,0,1,0,0)" fill="#ffffff" class="wordmark-text-0" data-fill-palette-color="quaternary" id="text-0"></path></svg></g></svg></g></svg></g></svg></g><g></g></svg></g></svg></g></svg></g></svg></g><defs></defs></svg><rect width="333.90454557049503" height="333.90454557049503" fill="none" stroke="none" visibility="hidden"></rect></g></svg></g></svg>